<svg width="20" height="20" viewBox="0 0 20 20" fill="none" xmlns="http://www.w3.org/2000/svg">
<path d="M5.8 1.90735e-05H14.2C17.4032 1.90735e-05 20 2.59677 20 5.80002V14.2C20 17.4033 17.4032 20 14.2 20H5.8C2.59675 20 0 17.4033 0 14.2V5.80002C0 2.59677 2.59675 1.90735e-05 5.8 1.90735e-05ZM5.6 2C3.61177 2 2 3.61178 2 5.6V14.4C2 16.3882 3.61177 18 5.6 18H14.4C16.3882 18 18 16.3882 18 14.4V5.6C18 3.61178 16.3882 2 14.4 2H5.6ZM15.25 3.5C15.9404 3.5 16.5 4.05965 16.5 4.75C16.5 5.44036 15.9404 6 15.25 6C14.5596 6 14 5.44036 14 4.75C14 4.05965 14.5596 3.5 15.25 3.5ZM10 5C12.7614 5 15 7.23858 15 10C15 12.7614 12.7614 15 10 15C7.23857 15 5 12.7614 5 10C5 7.23858 7.23857 5 10 5ZM10 7C8.3431 7 7 8.3432 7 10C7 11.6569 8.3431 13 10 13C11.6569 13 13 11.6569 13 10C13 8.3432 11.6569 7 10 7Z" fill="white"/>
</svg>
