<svg width="0" height="0" class="hidden">
  <symbol fill="none" xmlns="http://www.w3.org/2000/svg" viewBox="0 0 20 20" id="account">
    <path fill-rule="evenodd" clip-rule="evenodd" d="M10 0C4.48 0 0 4.48 0 10C0 15.52 4.48 20 10 20C15.52 20 20 15.52 20 10C20 4.48 15.52 0 10 0ZM5.07 16.28C5.5 15.38 8.12 14.5 10 14.5C11.88 14.5 14.51 15.38 14.93 16.28C13.57 17.36 11.86 18 10 18C8.14 18 6.43 17.36 5.07 16.28ZM16.36 14.83C14.93 13.09 11.46 12.5 10 12.5C8.54 12.5 5.07 13.09 3.64 14.83C2.62 13.49 2 11.82 2 10C2 5.59 5.59 2 10 2C14.41 2 18 5.59 18 10C18 11.82 17.38 13.49 16.36 14.83ZM10 4C8.06 4 6.5 5.56 6.5 7.5C6.5 9.44 8.06 11 10 11C11.94 11 13.5 9.44 13.5 7.5C13.5 5.56 11.94 4 10 4ZM10 9C9.17 9 8.5 8.33 8.5 7.5C8.5 6.67 9.17 6 10 6C10.83 6 11.5 6.67 11.5 7.5C11.5 8.33 10.83 9 10 9Z" fill="white"></path>
  </symbol>
  <symbol fill="none" xmlns="http://www.w3.org/2000/svg" viewBox="0 0 16 24" id="arrowdown">
    <path d="M16 16L14.59 14.59L9 20.17V0H7V20.17L1.42 14.58L0 16L8 24L16 16Z" fill="white"></path>
  </symbol>
  <symbol fill="none" xmlns="http://www.w3.org/2000/svg" viewBox="0 0 24 16" id="arrowright">
    <path d="M16 -6.99382e-07L14.59 1.41L20.17 7L-3.93402e-07 7L-3.0598e-07 9L20.17 9L14.58 14.58L16 16L24 8L16 -6.99382e-07Z" fill="#FBD784"></path>
  </symbol>
  <symbol fill="none" xmlns="http://www.w3.org/2000/svg" viewBox="0 0 20 20" id="insta">
    <path d="M5.8 1.90735e-05H14.2C17.4032 1.90735e-05 20 2.59677 20 5.80002V14.2C20 17.4033 17.4032 20 14.2 20H5.8C2.59675 20 0 17.4033 0 14.2V5.80002C0 2.59677 2.59675 1.90735e-05 5.8 1.90735e-05ZM5.6 2C3.61177 2 2 3.61178 2 5.6V14.4C2 16.3882 3.61177 18 5.6 18H14.4C16.3882 18 18 16.3882 18 14.4V5.6C18 3.61178 16.3882 2 14.4 2H5.6ZM15.25 3.5C15.9404 3.5 16.5 4.05965 16.5 4.75C16.5 5.44036 15.9404 6 15.25 6C14.5596 6 14 5.44036 14 4.75C14 4.05965 14.5596 3.5 15.25 3.5ZM10 5C12.7614 5 15 7.23858 15 10C15 12.7614 12.7614 15 10 15C7.23857 15 5 12.7614 5 10C5 7.23858 7.23857 5 10 5ZM10 7C8.3431 7 7 8.3432 7 10C7 11.6569 8.3431 13 10 13C11.6569 13 13 11.6569 13 10C13 8.3432 11.6569 7 10 7Z" fill="white"></path>
  </symbol>
  <symbol fill="none" xmlns="http://www.w3.org/2000/svg" viewBox="0 0 22 17" id="twitter">
    <path d="M21.4592 2.01238C20.6896 2.35373 19.8624 2.58442 18.9944 2.68815C19.8803 2.15701 20.5609 1.31598 20.8813 0.31378C20.052 0.80564 19.1336 1.16278 18.156 1.3552C17.3732 0.52112 16.2579 0 15.0235 0C12.6534 0 10.7317 1.92147 10.7317 4.29155C10.7317 4.6279 10.7697 4.95546 10.8429 5.2696C7.27609 5.0906 4.11375 3.38203 1.99709 0.78551C1.62765 1.41935 1.41601 2.15656 1.41601 2.94309C1.41601 4.43204 2.17364 5.74563 3.32523 6.5153C2.62179 6.4929 1.95996 6.2999 1.38139 5.97846C1.38098 5.99639 1.38098 6.0143 1.38098 6.0324C1.38098 8.1118 2.86033 9.8463 4.82359 10.2406C4.46349 10.3387 4.08434 10.3912 3.69294 10.3912C3.4164 10.3912 3.14755 10.3642 2.88546 10.3142C3.43161 12.0191 5.01653 13.26 6.89454 13.2945C5.42576 14.4457 3.57527 15.1318 1.56453 15.1318C1.21812 15.1318 0.876511 15.1114 0.540771 15.0717C2.44003 16.2894 4.69591 17 7.1195 17C15.0134 17 19.3302 10.4605 19.3302 4.78918C19.3302 4.60314 19.326 4.41805 19.3177 4.23395C20.1563 3.62886 20.8839 2.87302 21.4592 2.01238Z" fill="white"></path>
  </symbol>
</svg>